<svg width="34" height="34" viewBox="0 0 34 34" fill="none" xmlns="http://www.w3.org/2000/svg">
<circle cx="17" cy="17" r="17" fill="#F8F8F8"/>
<rect opacity="0.01" x="8" y="8" width="18" height="18" fill="#172B4D"/>
<path fill-rule="evenodd" clip-rule="evenodd" d="M20.9825 19.925L23.5325 22.4675C23.6745 22.6083 23.7543 22.8 23.7543 23C23.7543 23.2 23.6745 23.3917 23.5325 23.5325C23.3917 23.6745 23.2 23.7543 23 23.7543C22.8 23.7543 22.6083 23.6745 22.4675 23.5325L19.925 20.9825C18.8768 21.8052 17.5825 22.2517 16.25 22.25C12.9363 22.25 10.25 19.5637 10.25 16.25C10.25 12.9363 12.9363 10.25 16.25 10.25C19.5637 10.25 22.25 12.9363 22.25 16.25C22.2517 17.5825 21.8052 18.8768 20.9825 19.925ZM16.2503 11.75C13.765 11.75 11.7503 13.7647 11.7503 16.25C11.7503 18.7353 13.765 20.75 16.2503 20.75C18.7356 20.75 20.7503 18.7353 20.7503 16.25C20.7503 13.7647 18.7356 11.75 16.2503 11.75Z" fill="#172B4D"/>
</svg>
